<?xml version="1.0" encoding="utf-8"?>
<!-- Generator: Adobe Illustrator 25.4.1, SVG Export Plug-In . SVG Version: 6.00 Build 0)  -->
<svg version="1.1" xmlns="http://www.w3.org/2000/svg" xmlns:xlink="http://www.w3.org/1999/xlink" x="0px" y="0px"
	 viewBox="0 0 595.3 841.9" style="enable-background:new 0 0 595.3 841.9;" xml:space="preserve">
<style type="text/css">
	.st0{opacity:0.77;fill:#3CCBFF;enable-background:new    ;}
</style>
<polygon class="st0" points="234.8,351 244,351 250.2,364 274.2,364 281.9,381.4 287.4,387.7 304,375.7 314.2,375.7 323.4,380.7 
	340.4,366 348,367.9 348.5,357.7 344.9,348.9 356.1,340.6 356.1,330 348.9,315.9 332.8,312.4 332.8,297.9 345.1,293.8 345.1,288.6 
	336.6,273.2 336.6,257 326.4,262 312.5,259 306.8,240.4 306.8,231.8 294.7,231.8 294.7,221.5 284.9,221.5 284.9,213.7 261.5,229.5 
	261.5,229.7 272.5,240.6 272.5,251.1 260.1,261.5 255.4,289.3 264.4,297.2 258.3,303.6 267.3,321.5 257.3,329 254.1,320.5 
	244.8,332.6 245.3,333 234.1,338.3 "/>
<polygon class="st0" points="305,189 286.6,212 286.9,213 286.9,219.5 296.7,219.5 296.7,229.8 308.8,229.8 308.8,240.2 314,257.3 
	326.1,259.9 338.6,253.9 338.6,271.7 351.9,268.9 365,260 377.1,256.5 361.2,224.6 340,187 340,178 333.8,169.8 333.8,157.5 
	311.2,139.7 303.7,152.7 308.5,171.2 "/>
<polygon class="st0" points="352.7,270.8 339.1,273.6 347.1,288.1 347.1,292.6 360.9,283.2 369.9,283.2 382.5,278.6 378.3,271.2 
	378.3,258.9 378,258.3 365.8,261.8 "/>
<polygon class="st0" points="398.2,292.4 384.5,282.2 383.5,280.4 370.3,285.2 361.5,285.2 347.1,295 347.1,295.2 334.8,299.3 
	334.8,310.8 350.2,314.2 358.1,329.5 358.1,341.6 347.4,349.6 350.6,357.3 350,367.1 357,361.8 375.5,370.8 392.5,361.3 
	404.7,361.3 412.2,355.9 434.5,353.4 434.5,346.5 416.7,329.4 423.5,316.4 416.7,316.4 410.5,308.2 398.2,304.1 "/>
<polygon class="st0" points="444.8,379.4 447.5,369.8 435.5,355.3 413,357.8 405.4,363.3 393,363.3 376.7,372.4 379.9,385.8 
	391.8,401.7 406.7,401.7 417.7,409 417.7,442.3 389.7,462.3 396.4,466.8 429,466.8 432.1,474.2 443.5,461.4 456.2,458.4 
	461.1,466.8 470.7,466.8 490.5,462.1 494.6,447.9 501.5,444.1 493.4,435.6 493.4,420.9 483.8,409.6 477,413.7 472.2,406.1 
	462.6,408.9 466,402.7 "/>
<polygon class="st0" points="194.1,240.5 202.7,261 197.6,270.6 210.8,274.8 205.5,281.7 210.1,298.3 214.3,307.3 214.3,314.8 
	220.5,326.7 229.8,321.4 243.2,331.4 254.6,316.4 258.2,325.8 264.7,320.9 255.9,303.2 261.5,297.3 253.3,290.1 258.2,260.4 
	270.5,250.2 270.5,241.5 259.5,230.6 259.5,230.3 245.4,232.8 227.6,226.3 207.8,226.3 194.1,229.8 193.7,234.3 "/>
<polygon class="st0" points="375.9,550.8 381.2,543.2 367.1,525.7 366.4,516.2 357.5,506.5 357.5,497.3 370,491.7 377.5,467.8 
	387.4,461.5 415.7,441.2 415.7,410.1 406.1,403.7 390.8,403.7 378.9,387.7 366.3,399 366.3,411.1 342.3,415.2 342.3,427 321.2,427 
	303.4,444.1 309.4,468 315.3,476.2 298.6,489.5 297.5,501.4 304,504.8 304,513.1 309.7,511 318.9,534.3 328.4,542.2 340.3,533.9 
	352.6,533.9 352.6,543.1 "/>
<polygon class="st0" points="204.7,511.1 204.7,503.1 221.2,478.3 225.1,495.1 258.3,505.4 261.6,521.5 250.4,535.3 265,544.5 
	270.8,534 281.8,531.5 277.9,520.4 284.1,511 295.7,516 302,513.8 302,506.1 295.4,502.6 296.7,488.5 312.6,475.8 307.5,468.9 
	301.5,444.6 285.3,439.2 271.7,430.7 257.9,446.9 250.7,446.9 243.5,454 234.3,446.9 210.1,452.8 210.1,466.7 198.3,466.7 
	197.9,466.8 196.1,473.3 177.6,480.8 174.2,489.7 181.8,493.8 183.8,501.7 195.9,501.7 "/>
<polygon class="st0" points="508.8,595.4 502.3,581.1 485.5,581.1 477.2,561.6 483.5,545 485.1,529 478.8,529 462.3,546.8 
	465,558.3 461.6,566.4 465.2,576.6 452.6,580.8 452.6,591.5 464,616.9 470.1,608.9 495.5,611.6 508.5,606.1 508.8,606.1 "/>
<polygon class="st0" points="450.6,592 450.6,581.1 441.8,581.1 422.9,571 407.8,581.3 381.7,564.4 375.6,552.8 350.6,544.5 
	350.6,535.9 341,535.9 328.3,544.7 317.2,535.5 308.6,513.6 295.6,518.2 284.9,513.5 280.1,520.7 284.4,532.9 272.1,535.8 
	266.6,545.6 271.7,549.6 289.5,544.6 291,560.2 290.9,560.9 303.7,569.8 316.7,571.2 306.4,580.1 305,591.8 324.9,589.7 
	335.2,587.6 335.2,596.5 343.4,602.7 362.6,598.6 366.7,606.1 386.1,608.2 400.2,620.1 425.5,624.2 427.6,609.6 438.6,608.2 
	444.1,617.8 462.2,617.8 "/>
<polygon class="st0" points="568.7,563 568.7,551.3 555.7,530.8 550.2,539 545.5,522.6 545.5,511.6 533.8,500.7 527.6,500.7 
	521.6,485.3 514.5,495.5 493.8,495.5 484.6,504.7 469.2,494.8 455,496.8 446.5,509.8 451.2,547.6 460.4,564.1 462.9,558.1 
	460.1,546.3 477.9,527 487.3,527 485.4,545.5 479.4,561.6 486.9,579.1 503.6,579.1 510.8,595 510.8,606.1 519.4,606.1 527,617.8 
	539.3,617.8 540,604.1 564.6,591.1 574.9,582.2 "/>
<polygon class="st0" points="98.5,301.3 99.8,299.7 109.6,299.7 117.5,295.4 111.2,275.7 118.2,275.7 135.6,250.3 135.6,240.2 
	141.1,228.5 136.6,226 122.8,226 111.9,235.6 94.1,235.6 78.3,226 58.5,235.6 34.5,235.6 25.9,229 18,255.4 22.9,264.4 29.7,265.7 
	39.5,288 50.2,290.4 58.5,278 62.6,285.6 58.5,297.9 79,307.5 91.3,304.1 "/>
<polygon class="st0" points="289,560.3 287.7,547.2 271.3,551.8 264.7,546.7 247.4,535.8 259.5,520.9 256.6,506.9 223.4,496.6 
	220.3,483.3 206.7,503.7 206.7,516.2 195,503.7 184.3,503.7 186.6,512.3 174.8,526 177,539 171.5,567.1 183.1,591.8 211.9,589.7 
	228.3,582.2 224.9,563.7 245.4,563.7 243.4,577.4 250.2,584.2 265.3,578 270.1,568.5 277,576 288.9,561.5 "/>
<polygon class="st0" points="119.3,339.2 128.1,327.6 133.3,304.7 143.2,316.1 154.4,316.8 158.1,327.7 165.2,319.1 172.5,325.6 
	181.4,324.9 181.4,331.8 203.1,331.8 199.7,317 212.3,314.2 212.3,307.7 208.2,298.9 203.3,281.3 207.5,275.8 194.7,271.8 
	200.5,260.9 192.1,240.9 192.1,240.2 188.3,238.6 186.6,224.3 177,224.3 167.4,213 162.6,226 145.4,230.8 142.9,229.4 137.6,240.6 
	137.6,251 119.3,277.7 113.9,277.7 119.9,296.3 110.1,301.7 100.8,301.7 100.4,302.1 104.1,334.3 119.1,339.4 "/>
<polygon class="st0" points="126.3,420.1 135.6,413.5 141.5,428.7 150.8,434.4 157.5,428.9 157.5,414.4 168.6,409.9 194.5,414 
	202.4,407.9 196.6,397 189.1,380.9 203.1,380.9 207.6,373.7 220.3,387 223.4,374.7 233.5,368.6 232.8,352.1 232.1,337 241.5,332.6 
	229.6,323.8 219.7,329.4 212.7,316.2 202.1,318.5 205.6,333.8 179.4,333.8 179.4,327.1 171.8,327.7 165.4,322 157.4,331.8 
	152.9,318.7 142.2,318.1 134.4,309 129.9,328.5 120.9,340.4 120.8,340.5 129.7,349.3 140.7,345.9 140.7,366.4 113.9,380.4 
	122.8,406.8 112.6,413.7 126,420.4 "/>
<polygon class="st0" points="198.2,464.7 208.1,464.7 208.1,451.2 234.7,444.8 243.3,451.4 249.8,444.9 257,444.9 271.3,428.1 
	286.3,437.4 302,442.7 320.4,425 340.3,425 340.3,413.5 364.3,409.4 364.3,398.2 377.9,385.9 374.7,372.6 357.2,364.1 349.1,370.2 
	340.9,368.2 323.7,383.2 313.7,377.7 304.7,377.7 287.1,390.4 280.1,382.4 272.9,366 248.9,366 242.8,353 234.9,353 235.5,369.7 
	225.1,376 221.3,391.1 207.9,376.9 204.2,382.9 192.2,382.9 198.4,396.1 204.9,408.5 195,416.1 168.9,412 159.5,415.7 159.5,429.9 
	151,436.8 139.9,430.1 134.7,416.6 127.5,421.8 126.8,422.3 124.9,442.4 132.4,450 141.3,444.5 163.3,457.5 196,465.2 "/>
<g>
	<polygon class="st0" points="508.5,465 508.5,451.3 503,445.6 496.3,449.3 492.1,463.8 470.8,468.8 462.9,468.8 470.3,477.6 
		470.3,485.7 462.6,493.7 469.7,492.8 484.4,502.1 493,493.5 513.4,493.5 520.5,483.4 	"/>
	<polygon class="st0" points="449.3,548.2 449.2,548 444.4,509.3 453.8,494.9 459.4,494.2 468.3,484.9 468.3,478.3 460.3,468.8 
		460,468.8 455.2,460.7 444.6,463.2 431.4,477.8 427.7,468.8 395.8,468.8 387.9,463.5 379.2,469.1 371.6,493.2 359.5,498.6 
		359.5,505.7 368.3,515.3 369,524.9 383.7,543.1 377.4,552.1 383.2,563 407.8,578.9 422.8,568.7 442.3,579.1 451.5,579.1 
		462.7,575.4 459.6,566.8 	"/>
</g>
</svg>
