<?xml version="1.0" encoding="utf-8"?>
<!-- Generator: Adobe Illustrator 25.4.1, SVG Export Plug-In . SVG Version: 6.00 Build 0)  -->
<svg version="1.1" xmlns="http://www.w3.org/2000/svg" xmlnsXlink="http://www.w3.org/1999/xlink" x="0px" y="0px"
	 viewBox="0 0 595.28 841.89" xmlSpace="preserve">
<style type="text/css">
	.st0{opacity:0.77;fill:#3CCBFF;enable-background:new    ;}
</style>
<polygon  points="234.76,351.03 244.03,351.03 250.19,364.04 274.18,364.04 281.92,381.41 287.39,387.7 304.03,375.69 
	314.2,375.69 323.41,380.74 340.39,366 347.95,367.89 348.55,357.68 344.91,348.95 356.1,340.57 356.1,330.01 348.89,315.92 
	332.81,312.42 332.81,297.88 345.14,293.77 345.14,288.59 336.58,273.18 336.58,257.05 326.4,261.98 312.48,259.05 306.78,240.38 
	306.78,231.79 294.68,231.79 294.68,221.52 284.86,221.52 284.86,213.66 261.47,229.47 261.49,229.66 272.48,240.65 272.48,251.13 
	260.08,261.46 255.43,289.31 264.36,297.17 258.3,303.58 267.27,321.5 257.32,328.96 254.07,320.5 244.8,332.65 245.33,333.05 
	234.15,338.27 "/>
<polygon  points="305.04,189.01 286.64,212.02 286.86,212.99 286.86,219.52 296.68,219.52 296.68,229.79 308.78,229.79 
	308.78,240.23 314.04,257.33 326.15,259.88 338.58,253.86 338.58,271.69 351.9,268.9 365.04,259.97 377.12,256.46 361.21,224.63 
	339.97,186.96 339.97,178.05 333.81,169.84 333.81,157.51 311.21,139.7 303.67,152.71 308.47,171.21 "/>
<polygon  points="352.7,270.77 339.11,273.62 347.14,288.07 347.14,292.6 360.9,283.22 369.93,283.22 382.5,278.61 
	378.33,271.21 378.33,258.88 378.03,258.28 365.75,261.85 "/>
<polygon  points="398.19,292.44 384.49,282.16 383.49,280.38 370.29,285.22 361.51,285.22 347.14,295.02 347.14,295.21 
	334.81,299.32 334.81,310.81 350.24,314.16 358.1,329.53 358.1,341.57 347.36,349.62 350.57,357.33 350,367.06 356.98,361.82 
	375.55,370.76 392.45,361.3 404.72,361.3 412.2,355.86 434.49,353.42 434.49,346.55 416.68,329.42 423.53,316.41 416.68,316.41 
	410.52,308.19 398.19,304.08 "/>
<polygon  points="444.77,379.42 447.51,369.84 435.52,355.32 412.95,357.79 405.37,363.3 392.97,363.3 376.74,372.39 
	379.94,385.84 391.84,401.71 406.71,401.71 417.68,409.03 417.68,442.27 389.68,462.27 396.44,466.78 429,466.78 432.07,474.16 
	443.55,461.4 456.22,458.42 461.09,466.78 470.68,466.78 490.54,462.15 494.6,447.93 501.52,444.09 493.4,435.59 493.4,420.94 
	483.81,409.56 476.96,413.67 472.16,406.14 462.58,408.88 466,402.71 "/>
<polygon  points="194.12,240.47 202.72,260.98 197.59,270.61 210.82,274.79 205.46,281.7 210.09,298.26 214.26,307.29 
	214.26,314.79 220.51,326.67 229.77,321.38 243.2,331.45 254.65,316.44 258.24,325.78 264.73,320.91 255.89,303.22 261.48,297.3 
	253.28,290.08 258.23,260.4 270.48,250.19 270.48,241.48 259.55,230.56 259.53,230.29 245.45,232.85 227.64,226.34 207.78,226.34 
	194.14,229.79 193.73,234.27 "/>
<polygon  points="375.88,550.84 381.19,543.17 367.08,525.7 366.4,516.15 357.47,506.53 357.47,497.27 369.98,491.71 
	377.48,467.82 387.38,461.46 415.68,441.24 415.68,410.1 406.11,403.71 390.84,403.71 378.87,387.75 366.32,399.05 366.32,411.09 
	342.34,415.2 342.34,427 321.2,427 303.41,444.13 309.39,468.04 315.32,476.19 298.6,489.53 297.53,501.45 303.99,504.85 
	303.99,513.08 309.73,511.04 318.89,534.3 328.38,542.21 340.34,533.9 352.62,533.9 352.62,543.09 "/>
<polygon  points="204.73,511.14 204.73,503.09 221.25,478.3 225.07,495.08 258.3,505.36 261.59,521.47 250.37,535.34 
	264.95,544.46 270.82,534.03 281.81,531.45 277.9,520.38 284.12,511.05 295.71,516.02 301.99,513.79 301.99,506.06 295.42,502.6 
	296.68,488.5 312.57,475.81 307.54,468.9 301.46,444.58 285.34,439.18 271.68,430.73 257.9,446.86 250.66,446.86 243.48,454.04 
	234.26,446.95 210.15,452.81 210.15,466.73 198.3,466.73 197.89,466.82 196.14,473.26 177.64,480.79 174.22,489.7 181.75,493.81 
	183.8,501.71 195.89,501.71 "/>
<polygon  points="407.77,578.91 422.79,568.67 442.28,579.11 451.46,579.11 462.66,575.37 459.61,566.83 449.28,548.23 
	449.25,548.04 444.41,509.32 453.77,494.93 469.65,492.77 484.35,502.12 492.98,493.49 513.43,493.49 520.51,483.43 508.47,465.04 
	508.47,451.34 502.95,445.58 496.3,449.28 492.14,463.83 470.79,468.78 459.95,468.78 455.23,460.7 444.62,463.2 431.44,477.84 
	427.66,468.78 395.83,468.78 387.91,463.5 379.17,469.11 371.61,493.17 359.47,498.57 359.47,505.74 368.34,515.3 369.03,524.93 
	383.69,543.08 377.44,552.1 383.2,562.97 "/>
<polygon  points="508.84,595.39 502.34,581.11 485.54,581.11 477.25,561.64 483.51,544.95 485.1,529.05 478.77,529.05 
	462.3,546.84 464.99,558.28 461.59,566.44 465.23,576.63 452.62,580.83 452.62,591.54 463.95,616.88 470.11,608.88 495.45,611.62 
	508.47,606.14 508.84,606.14 "/>
<polygon  points="450.62,591.97 450.62,581.11 441.78,581.11 422.91,571 407.79,581.31 381.68,564.37 375.58,552.85 
	350.62,544.53 350.62,535.9 340.97,535.9 328.27,544.72 317.22,535.51 308.57,513.57 295.64,518.17 284.86,513.55 280.12,520.66 
	284.44,532.88 272.14,535.78 266.61,545.6 271.7,549.56 289.48,544.58 290.98,560.22 290.94,560.92 303.67,569.84 316.68,571.21 
	306.41,580.11 305.04,591.75 324.9,589.7 335.18,587.64 335.18,596.55 343.4,602.71 362.58,598.6 366.68,606.14 386.12,608.19 
	400.19,620.1 425.53,624.21 427.64,609.56 438.6,608.19 444.08,617.78 462.17,617.78 "/>
<polygon  points="568.74,562.99 568.74,551.34 555.73,530.79 550.25,539.01 545.45,522.58 545.45,511.62 533.81,500.66 
	527.64,500.66 521.64,485.3 514.46,495.49 493.81,495.49 484.63,504.67 469.2,494.85 454.95,496.79 446.49,509.8 451.21,547.6 
	460.39,564.13 462.9,558.11 460.11,546.26 477.89,527.05 487.31,527.05 485.43,545.53 479.41,561.59 486.87,579.11 503.63,579.11 
	510.84,594.96 510.84,606.14 519.42,606.14 526.96,617.78 539.29,617.78 539.97,604.08 564.63,591.07 574.9,582.16 "/>
<polygon  points="98.49,301.33 99.75,299.66 109.58,299.66 117.53,295.38 111.2,275.69 118.21,275.69 135.55,250.35 
	135.55,240.16 141.13,228.47 136.55,226 122.85,226 111.89,235.59 94.08,235.59 78.33,226 58.47,235.59 34.49,235.59 25.85,229 
	18.05,255.45 22.85,264.36 29.7,265.73 39.55,288.01 50.25,290.38 58.47,278.05 62.58,285.59 58.47,297.92 79.01,307.51 
	91.34,304.08 "/>
<polygon  points="288.97,560.27 287.72,547.15 271.26,551.76 264.74,546.68 247.39,535.84 259.45,520.94 256.58,506.92 
	223.37,496.65 220.34,483.29 206.73,503.7 206.73,516.2 195.02,503.71 184.32,503.71 186.55,512.3 174.79,526 176.96,539.01 
	171.48,567.1 183.12,591.75 211.89,589.7 228.33,582.16 224.9,563.67 245.45,563.67 243.4,577.37 250.25,584.22 265.32,578.05 
	270.11,568.47 276.96,576 288.91,561.53 "/>
<polygon  points="119.26,339.22 128.09,327.62 133.27,304.67 143.19,316.12 154.4,316.82 158.14,327.74 165.2,319.07 
	172.51,325.65 181.38,324.91 181.38,331.85 203.1,331.85 199.73,317.02 212.26,314.24 212.26,307.73 208.19,298.87 203.26,281.26 
	207.48,275.84 194.69,271.8 200.51,260.88 192.15,240.93 192.11,240.25 188.29,238.59 186.55,224.29 176.96,224.29 167.37,212.99 
	162.58,226 145.45,230.79 142.89,229.42 137.55,240.61 137.55,250.97 119.27,277.69 113.95,277.69 119.95,296.35 110.09,301.66 
	100.75,301.66 100.41,302.1 104.1,334.27 119.14,339.42 "/>
<polygon  points="126.35,420.15 135.65,413.47 141.47,428.75 150.84,434.37 157.47,428.95 157.47,414.36 168.62,409.9 
	194.5,413.99 202.39,407.91 196.62,397.02 189.08,380.95 203.11,380.95 207.61,373.69 220.27,387.04 223.35,374.67 233.47,368.6 
	232.81,352.11 232.09,337.02 241.46,332.65 229.62,323.77 219.71,329.44 212.73,316.18 202.13,318.54 205.61,333.85 179.38,333.85 
	179.38,327.09 171.82,327.72 165.43,321.97 157.42,331.79 152.94,318.74 142.23,318.07 134.35,308.97 129.94,328.49 120.91,340.36 
	120.83,340.47 129.7,349.29 140.66,345.86 140.66,366.41 113.95,380.45 122.85,406.82 112.58,413.67 125.97,420.45 "/>
<polygon  points="198.19,464.73 208.15,464.73 208.15,451.24 234.72,444.78 243.31,451.38 249.83,444.86 256.98,444.86 
	271.28,428.12 286.29,437.42 302.04,442.67 320.39,425 340.34,425 340.34,413.51 364.32,409.4 364.32,398.16 377.9,385.93 
	374.73,372.59 357.21,364.15 349.1,370.24 340.92,368.19 323.66,383.16 313.69,377.69 304.68,377.69 287.08,390.39 280.15,382.36 
	272.88,366.04 248.93,366.04 242.76,353.03 234.85,353.03 235.52,369.7 225.09,375.96 221.32,391.06 207.95,376.94 204.23,382.95 
	192.23,382.95 198.41,396.12 204.95,408.47 195.04,416.1 168.86,411.96 159.47,415.72 159.47,429.9 151.02,436.81 139.85,430.1 
	134.71,416.61 127.54,421.76 126.83,422.31 124.9,442.44 132.44,449.97 141.34,444.49 163.26,457.51 196,465.21 "/>
</svg>
