<?xml version="1.0" encoding="utf-8"?>
<!-- Generator: Adobe Illustrator 25.4.1, SVG Export Plug-In . SVG Version: 6.00 Build 0)  -->
<svg version="1.1" xmlns="http://www.w3.org/2000/svg" xmlnsXlink="http://www.w3.org/1999/xlink" x="0px" y="0px" viewBox="0 0 595.28 841.89" xmlSpace="preserve">
<polygon  points="564.32,230.77 551.27,235.12 554.45,245.99 571.69,238.74 "/>
<polygon  points="539.68,190.9 544.75,183.65 533.15,169.15 529.53,176.4 517.2,183.65 508.5,180.02 476.61,190.9 
	479.51,203.95 493.28,203.95 484.58,214.82 501.98,225.69 528.8,238.74 532.43,224.24 544.75,224.24 544.75,214.1 536.78,209.02 
	544.75,197.42 "/>
<polygon  points="146.38,411.29 146.38,420.81 161.75,420.81 172.87,433.58 184.26,420.5 206.65,434.22 226.85,440.2 
	226.85,451.06 268.13,462.25 276.62,450.41 291.73,460.69 281.81,434.91 292.47,424.96 275.82,405.13 275.82,388.63 259.53,377.53 
	250.5,377.53 245.81,393.31 223.35,398.65 204.5,383.13 187.78,372.11 181.33,380.74 175.8,368.11 155.44,368.11 147.87,385.3 
	151.53,405.04 "/>
<polygon  points="386.39,289.97 386.39,263.42 376.77,271.11 352.94,262.45 342.36,273.69 314.42,292.32 311.67,302.62 
	315.91,346.42 326.94,346.42 345.35,361.89 353.03,368.17 374.41,368.17 378.89,357.29 365.23,347.94 369.85,327.9 386.15,320.1 
	380.51,302.46 "/>
<polygon  points="134.52,413.82 126.57,422.14 130.13,432.63 105.06,432.63 105.06,442.95 122.6,445.06 146.5,467.47 
	141.5,487.47 162.16,495.6 172.89,486.72 183.75,496.23 186.65,479.8 207.33,479.8 207.33,465.97 195.73,465.97 195.73,455.64 
	180.88,455.64 171.97,435.77 160.79,422.93 144.93,422.93 "/>
<polygon  points="259.51,601.33 267.21,590.83 302.59,582.89 309.25,566.91 286.35,555.46 286.35,531.46 271.15,521.79 
	258.22,521.79 258.13,521.83 260.19,542.48 259.47,559.15 247.2,576.83 246.28,594.87 246.88,595.67 "/>
<polygon  points="425.78,325.85 413.15,317.78 406,329.22 387.48,321.81 371.69,329.37 367.61,347.01 381.5,356.51 
	375.83,370.28 353.63,370.28 352.31,388.06 369.65,393.84 369.65,417.02 381.81,420.81 392.13,420.81 392.13,430.59 395.35,437.04 
	413.87,437.04 413.87,416.35 427.65,394.6 430.55,354 418.95,349.65 422.57,329.36 "/>
<polygon  points="414.6,500.44 429.82,490.29 429.1,478.69 419.67,478.69 416.77,450.42 413.96,439.15 394.04,439.15 
	390.01,431.09 390.01,422.93 382.32,422.88 371.6,444.6 355.17,456.14 346.15,439.04 333.8,436.74 343.21,449.11 323.24,466.66 
	334.86,468.35 334.86,478.9 356.06,495.87 374.49,502.01 378.67,490.84 395.4,486.66 392.18,500.35 397.93,514.73 397.93,526.26 
	411.13,550.58 427.68,544.1 434.43,553.1 455.58,556.3 455.92,553.35 451.57,535.23 464.62,513.48 464.62,496.09 459.54,488.11 
	443.6,510.58 432,510.58 "/>
<polygon  points="244.97,513.48 243.98,513.1 254.2,486.7 266.6,492.13 275.82,492.13 275.82,480.19 290.14,473.59 
	292.71,463.92 277.14,453.32 268.99,464.68 224.73,452.68 224.73,441.78 205.66,436.1 184.68,423.24 174.11,435.38 182.25,453.53 
	197.85,453.53 197.85,463.86 209.45,463.86 209.45,487.86 214.04,497.03 232.65,492.57 232.65,513.48 "/>
<polygon  points="250.77,292.2 250.77,317.37 218.46,317.37 222.04,330.95 203.07,333.92 199.77,346 191.16,346 
	188.49,361.19 177.84,367.49 181.81,376.56 187.28,369.24 205.8,381.46 223.88,396.35 244.13,391.54 248.92,375.42 260.19,375.42 
	277.94,387.51 277.94,404.36 294.3,423.84 304.09,420.98 313.77,403.47 309.47,393.93 316.6,372.54 309.42,367.51 313.88,347.41 
	309.62,303.4 293.45,299.89 276.73,286.02 267.5,290.44 267.5,279.97 "/>
<polygon  points="322.08,558.43 331.63,534.17 339.83,534.2 351.19,536.72 345.61,515.09 354.49,510.66 354.49,497.32 
	332.74,479.92 332.74,470.18 294.71,464.65 291.92,475.09 277.94,481.54 277.94,494.25 266.16,494.25 255.37,489.52 245.96,513.87 
	244.97,513.48 256.82,520.07 257.82,519.67 271.77,519.67 288.46,530.3 288.46,554.15 310.56,565.2 "/>
<polygon  points="155.32,333.94 145.71,329.94 132.51,349.07 149.58,354.33 131.97,367.52 134.63,384.12 146.08,384.12 
	154.06,365.99 176.2,365.99 186.58,359.86 189.38,343.88 198.16,343.88 201.39,332.04 219.39,329.22 216.1,316.72 203.55,295.8 
	193.61,298.64 184.13,289.95 184.13,276.53 176.52,274.58 176.28,274.55 170.97,287.02 159.04,286.62 159.04,286.79 151.48,305.57 
	"/>
<polygon  points="344,363.52 326.17,348.54 315.8,348.54 311.79,366.59 319.11,371.71 311.74,393.82 316.13,403.57 
	305.52,422.76 294.47,425.99 284.3,435.48 294.7,462.51 320.49,466.26 340.33,448.82 328.79,433.65 347.55,437.15 355.92,453.03 
	369.94,443.18 380.15,422.51 367.54,418.57 367.54,395.36 350.08,389.54 351.55,369.7 "/>
<polygon  points="90.89,560.37 81.2,553.16 81.2,533.68 96.41,529.88 112,523.1 102.32,503 145.66,503 139.13,488.21 
	144.15,468.16 121.65,447.08 104.08,444.97 80.93,450.99 86.94,462.29 68.21,459.45 67.87,475.79 60.06,485.37 64.47,502.61 
	47.79,500.44 36.19,514.21 48.69,534.11 44.17,539.58 44.17,554.08 53.59,560.6 81.86,567.13 90.86,560.71 "/>
<polygon  points="230.53,514.12 230.53,495.25 212.89,499.49 207.33,488.36 207.33,481.92 188.42,481.92 185.18,500.29 
	172.85,489.5 162.55,498.02 142.26,490.04 152.18,512.54 152.18,528.07 177.64,541.71 177.84,542.14 192.05,537.41 192.05,551.18 
	202.92,544.66 202.92,526.53 213.8,530.16 "/>
<polygon  points="329.45,620.34 329.45,606.03 316.72,595.1 321.57,561.18 311.44,567.14 304.12,584.71 268.45,592.72 
	260.21,603.96 245.52,597.38 245.09,596.8 231.05,600.32 219.42,589.6 204.1,600.98 207.27,624.4 223.95,637.17 250.1,634.15 
	261.31,641.07 286.29,637.17 294.99,624.4 306.59,621.5 319.64,632.37 329.77,620.88 "/>
<polygon  points="433.25,555.06 426.95,546.66 410.16,553.23 395.81,526.8 395.81,515.14 389.96,500.52 392.54,489.56 
	380.27,492.63 375.75,504.66 356.61,498.28 356.61,511.96 348.09,516.22 354.1,539.54 339.48,536.29 333.07,536.29 323.96,559.42 
	318.98,594.25 331.57,605.06 331.57,619.75 331.74,620.05 345.01,620.05 341.38,608.45 350.81,601.2 388.5,601.92 382.7,614.97 
	405.08,614.33 412.42,606.27 424.02,612.07 439.25,612.07 452.29,584.53 455.33,558.41 "/>
<polygon  points="30.4,442.44 39.82,442.44 48.52,431.57 51.42,441.72 65.73,448.14 76.79,438.09 80.1,449.01 
	80.23,448.98 102.94,443.07 102.94,430.51 127.17,430.51 124.15,421.6 134.38,410.9 144.26,419.54 144.26,410.53 149.27,404.46 
	145.89,386.23 132.82,386.23 129.87,367.76 121.34,363.49 116.16,353.13 103.81,338.04 79.36,355.21 87.22,358.49 83.55,368.57 
	69.54,360.87 69.54,370.54 50.81,366.47 48.93,340.56 47.87,338.79 36.19,330.81 21.7,351.1 30.4,356.18 43.44,365.6 38.37,375.75 
	37.59,404.75 42.72,421.87 30.4,428.67 "/>
<polygon  points="176.97,272.51 186.25,274.89 186.25,289.02 194.17,296.28 204.53,293.32 217.69,315.25 248.65,315.25 
	248.65,268.07 243.88,268.07 241.01,275.32 222.9,275.32 228.84,267.68 223.74,259.66 236.42,245.49 242.13,220.38 243.16,214.56 
	243.16,213.37 209.45,214.1 184.8,242.37 174.65,259.76 176.55,272.46 "/>
<polygon  points="360.96,219.5 345.82,219.5 333.41,231.22 333.41,238.13 352.94,249.34 353.66,260.46 376.37,268.72 
	388.5,259.01 388.5,290.45 382.78,302.61 388.3,319.86 405.14,326.6 412.48,314.84 427.23,324.26 437.8,312.68 437.8,298.91 
	437.8,285.86 414.96,251.07 414.96,232.22 414.96,217.72 422.57,203.95 410.25,201.05 407.35,183.65 396.48,183.65 378.35,193.8 
	368.33,207.51 365.9,215.55 360.96,210.37 "/>
<polygon  points="244.2,220.8 238.36,246.49 226.39,259.87 231.43,267.8 227.23,273.2 239.57,273.2 242.44,265.96 
	250.77,265.96 250.77,289.58 269.62,275.8 269.62,287.08 277.03,283.53 294.41,297.93 309.84,301.29 312.58,291 341.09,272 
	351.56,260.83 350.9,250.61 331.29,239.36 331.29,230.31 344.98,217.39 358.84,217.39 358.84,208.6 335.58,196.7 327.61,208.3 
	292.09,198.87 286.29,209.75 258.02,202.5 244.53,218.95 "/>
<polygon  points="50.1,338.39 51,339.9 52.81,364.74 67.42,367.91 67.42,357.29 82.41,365.53 84.54,359.67 75,355.69 
	104.2,335.17 118,352.08 122.91,361.91 130.71,365.81 144.99,355.13 129.13,350.24 144.94,327.32 152.73,330.57 149.31,305.3 
	156.92,286.38 156.92,285.83 147.83,279.34 128,269.1 125.24,268.79 125.36,267.74 122.46,286.59 107.24,277.16 87.66,285.86 
	75.34,300.36 84.76,308.33 74.62,310.51 55.77,306.88 42.49,319.15 50.69,330.08 "/>
<polygon  points="110.14,580.18 111.12,581.46 116.55,578.86 113.24,564.46 135.35,575.46 139.66,565.07 158.05,571.69 
	167.69,560.6 166.68,560.6 176.19,543.62 176.02,543.25 150.06,529.34 150.06,512.98 146.59,505.12 105.69,505.12 114.86,524.16 
	97.01,531.91 83.31,535.33 83.31,552.1 93.13,559.39 92.95,561.05 97.81,567.13 97.81,575.1 "/>
<polygon  points="185.53,599.75 166.68,588.15 174.65,573.65 184.8,577.28 193.5,570.75 184.8,560.6 170.49,560.6 
	158.69,574.17 140.84,567.74 136.44,578.37 116.3,568.35 119,580.04 112.44,583.18 117.38,589.6 120.28,609.17 110.14,617.87 
	139.86,620.77 155.81,619.32 160.88,630.92 178.28,625.12 166.68,604.1 177.55,608.45 "/>
</svg>
