<?xml version="1.0" encoding="utf-8"?>
<!-- Generator: Adobe Illustrator 25.4.1, SVG Export Plug-In . SVG Version: 6.00 Build 0)  -->
<svg version="1.1" xmlns="http://www.w3.org/2000/svg" xmlns:xlink="http://www.w3.org/1999/xlink" x="0px" y="0px"
	 viewBox="0 0 595.3 841.9" style="enable-background:new 0 0 595.3 841.9;" xml:space="preserve">
<style type="text/css">
	.st0{opacity:0.38;fill:#8DB0FF;enable-background:new    ;}
</style>
<polygon class="st0" points="146.1,231.5 155,231.5 162.6,237 146.1,241.8 "/>
<polygon class="st0" points="134.5,478 154.4,480.8 158.5,469.8 146.1,475.3 137.2,469.8 "/>
<path class="st0" d="M208,387.4l15.9-1v-6.5l25.8-11.4l13,2.2l9.2,21.9l-3.5,13.1l-8.3,12.9l13.7,4.7l19-3.2l2.7-12.4h11.8l6.9,4.9
	l8.9-4.6l6.7-16.6l6.6-14.8l-4-9.1l-14.9-1.2l-4.1-13h-8.6l-9.6-10.3l-3.8-6.9l-10.1,0.8c-5.6,4.8-6.5,4.8-6.8,4.8
	c-0.4,0-1.3,0-12.9-10.7l-19.2-2.6l-9.1,5.4l-19.1,19.7l2.1,14.5l-6,7.5L208,387.4z"/>
<polygon class="st0" points="566,593.8 566.7,582.9 555.7,571.2 551.7,547.2 546.8,538.3 540,538.3 529,533.5 526.8,532.8 
	506.4,537.6 501.4,542.6 492.5,541.6 478.5,527.9 480,518.6 474.1,514.5 471.3,529 461.8,536.2 457.5,546.5 457.5,551.9 
	462.9,555.3 461.5,562.5 463.3,562.1 490,600.7 522.2,611.6 541.3,605.7 542.7,617.1 574.9,617.1 581.9,599.3 "/>
<polygon class="st0" points="292.5,310.4 306.5,327.8 296.6,332.4 293.2,335.4 296.9,342 305.7,351.3 314.9,351.3 319,364.5 
	333.8,365.6 338.3,375.8 351.6,379.7 373.8,362.1 378.6,350.1 390.1,346.2 382.1,336.9 386.2,319.4 380.2,316.8 380.2,305.2 
	383,295.6 378.1,288.1 377.9,287.6 366,287.6 345.5,287.6 311.9,291.8 298.9,294.9 "/>
<path class="st0" d="M165.5,257.6l7.9,3.5l3.3,7.6l-7.5,17.9l1.3,6.6l12,6v7.4l6.9,9.4l16.9-1.7l12-11.3l-2.1,13h12.3l4.6,15.5
	l8.7-5.2l20.5,2.8l0.2,0.2c4.9,4.5,10.4,9.4,11.8,10.3c0.9-0.5,3.5-2.6,5.7-4.4l0.2-0.2l11.1-0.9l4.1-3.5l7.7-3.6l-13.2-16.4l6.6-16
	l-6.8-4.3v-7.5l-9.2-5.5l-3.2-14.4l-27.4-8.2l-26-2.7l-17.1-9.6H192l-11-11l-10.3,11l-6.9,9.8L165.5,257.6z"/>
<polygon class="st0" points="428,494.5 427.9,494.5 414.6,493.2 419.4,509.6 436,527 447.4,518.2 447.2,518 435.9,502.4 
	435.9,493.6 "/>
<polygon class="st0" points="123.5,269.1 135.9,280.1 146.5,278 149.4,290 131.8,296.2 131.8,303.4 127.6,310.2 118.7,301.3 
	114.7,311.8 115.7,311.6 117.6,320 132.9,329.8 126.3,339.6 125.7,360.9 128,381.6 134.3,390.4 154.4,394 155.3,395.1 161.9,375.4 
	174.2,379.8 186.6,377 200.1,379.8 208.5,374.4 214.1,367.5 212,352.9 231.5,332.8 227.1,318.1 213.9,318.1 215.4,308.5 
	207.2,316.2 188.6,318.1 180.6,307.3 180.6,300.5 168.9,294.6 167.2,286.4 174.6,268.7 171.9,262.7 163.9,259.1 162.3,254 
	144.1,247.9 118.7,256.1 134.5,264.4 "/>
<polygon class="st0" points="460.7,556.2 455.5,553.1 455.5,546.1 459.6,536.1 447.8,530 447.8,520.4 435.7,529.7 417.7,510.6 
	412.5,493.1 384.7,492.4 375.1,507.3 377,515.4 362.3,522 362.3,534.2 348.5,534.2 347.2,536.7 354.3,546.3 347.5,553.6 
	362.6,558.2 372.2,580.1 392.7,584.9 422.9,571.2 435.2,576 440,567.1 459.4,562.9 "/>
<polygon class="st0" points="295.2,577.2 296.6,566 279.8,554.8 279.8,543 264.1,541.6 248.8,544.2 248.8,536.8 239.2,544.6 
	212.6,543.4 187.4,538.7 175.6,550 174.9,561.6 190,556.1 197.5,563 203.7,557.5 224.9,574.6 224.2,591.8 234.5,593.8 235.2,604.1 
	257.8,606.8 266,595.9 297.6,593.8 307.8,577.2 "/>
<polygon class="st0" points="351.7,546.2 344.8,536.9 347.4,532.2 360.3,532.2 360.3,520.7 374.7,514.3 373.3,508.3 361.4,511.2 
	345.9,500.9 343.9,492.7 325,500.3 315.4,492.5 302.1,497.4 294,480.7 298.8,474 294,472.9 281.2,483.8 261.5,483.8 255,476.3 
	252.5,476.3 244.6,494.1 250.6,512.7 263.4,521.1 257,530.1 250.8,535.2 250.8,541.8 264,539.6 264.1,539.6 281.8,541.2 
	281.8,553.7 298.7,565 297.5,575.2 309,575.2 309.8,574 309.1,563 316,556.1 331.1,552 345.1,553.2 "/>
<polygon class="st0" points="212.9,541.4 238.5,542.6 248.8,534.2 248.8,534.1 248.9,534.1 255.6,528.7 260.5,521.6 249,514 
	242.5,494 251.2,474.3 253.2,474.3 244.6,464.5 244.6,451.9 240.9,449 224,439.3 199.5,439.3 182.9,455.6 178.4,455.6 170.7,472.6 
	184.5,474 197.9,484.3 181.1,487.6 184.5,500.7 195.1,513.8 186.6,524.6 190,536.3 189.2,537 "/>
<g>
	<polygon class="st0" points="426.1,449.4 437,439.8 432.4,435 424.3,437.1 417.3,425.7 422.9,420.8 418,413 412.1,413 400.9,399.5 
		401.8,374.5 398.1,373.9 365.1,371.6 352,381.9 338.1,377.9 331.7,392.2 324.7,409.4 315,414.4 312,433.1 319.5,445.4 348.3,446.8 
		358.6,454.4 361.5,470.5 352,474.5 343.7,483.7 347.6,499.7 361.8,509 373.4,506.2 383.6,490.4 414,491.1 414,491.2 428,492.5 
		436.4,491.5 441.8,484 441.2,471.9 444.5,466.7 445.8,458.2 434.1,462.1 	"/>
	<polygon class="st0" points="485.2,337.6 462.6,319.8 438.6,298.6 426.3,298.6 412.6,285.6 405,286.3 390,278 379.8,287 
		379.9,287.1 385.2,295.2 382.2,305.6 382.2,315.5 388.5,318.2 384.3,336.4 393.6,347.2 380.1,351.7 375.5,363.3 367.4,369.7 
		393.5,371.5 393.5,364.2 405,357.2 416.6,360 433.1,374.7 445.1,372.8 446.8,368.5 462.6,357.5 468.7,349.3 476.3,353.4 494.1,350 
			"/>
</g>
<g>
	<polygon class="st0" points="111.1,398.7 127.2,383.9 126.1,382.4 123.7,361 124.3,339 130.1,330.4 115.8,321.2 114,313.5 
		113.9,313.7 106.4,308.2 118.7,293.1 110.5,286.3 110.5,264.4 100.2,264.4 105,278 101.6,293.1 94.8,287.3 90,281.5 65.3,293.1 
		71.5,300 69.4,314.4 56.4,304.1 51.6,310.2 54.4,322.6 43.4,334.2 44.1,342.4 40,359.6 57.1,352 56.4,341.1 66.4,341.7 77,349.3 
		77.6,357.5 66,354.8 55,361.6 51.6,372.6 77.6,366.4 84.5,362.3 84.5,355.5 101.6,353.4 96.1,362.3 96.1,372.6 105.1,370.1 
		107.9,386.3 103,387 100.9,397.9 104.4,408.9 109.5,402.3 	"/>
	<polygon class="st0" points="144.8,433.5 136.1,417.9 133.8,402.7 132.6,391.4 128.3,385.5 113.7,398.9 116.3,406.8 116.7,414.4 
		120.8,450.7 129.7,462.3 140,458.9 150.2,464.4 158.5,458.2 	"/>
</g>
<g>
	<polygon class="st0" points="237.2,444.5 248.1,439.3 260,441.3 268.3,423.4 257.1,419.6 266.7,404.7 269.8,392.8 261.2,372.5 
		249.9,370.6 225.9,381.2 225.9,388.3 205.6,389.6 207.8,377.2 200.5,381.9 186.7,379 174.1,381.9 163.2,377.9 156.8,396.8 
		162.6,403.4 165,416.9 174.2,424.3 168.7,436.3 177.6,453.6 182.1,453.6 198.7,437.3 224.6,437.3 	"/>
	<polygon class="st0" points="359.3,469.2 356.8,455.5 347.6,448.8 318.3,447.3 309.9,433.5 313.1,414.2 306.7,409.7 297.2,409.7 
		294.5,421.8 273.7,425.3 270.2,424.1 261.1,443.6 248.4,441.3 239.3,445.7 242.1,447.3 246.7,450.9 246.7,463.8 255.9,474.3 
		256,474.3 256,474.5 262.4,481.8 280.5,481.8 293.4,470.8 302.2,472.7 296.3,480.9 303.1,494.9 315.8,490.3 325.3,498 343.4,490.8 
		341.5,483.1 350.8,472.8 	"/>
</g>
</svg>
