<?xml version="1.0" encoding="utf-8"?>
<!-- Generator: Adobe Illustrator 25.4.1, SVG Export Plug-In . SVG Version: 6.00 Build 0)  -->
<svg version="1.1" id="Layer_1" xmlns="http://www.w3.org/2000/svg" xmlnsXlink="http://www.w3.org/1999/xlink" x="0px" y="0px" viewBox="0 0 595.28 841.89" xmlSpace="preserve">
<polygon  points="146.14,231.48 155.04,231.48 162.58,236.96 146.14,241.75 "/>
<polygon  points="134.49,478.05 154.36,480.79 158.47,469.84 146.14,475.32 137.23,469.84 "/>
<path  d="M208.02,387.44l15.88-1.04v-6.54l25.78-11.35l12.99,2.22l9.24,21.87l-3.47,13.07l-8.27,12.87l13.74,4.73
	l18.95-3.19l2.7-12.39h11.8l6.88,4.87l8.91-4.59l6.68-16.56l6.65-14.75l-4.03-9.13l-14.9-1.19l-4.13-12.99h-8.6l-9.63-10.3
	l-3.84-6.85l-10.13,0.81c-5.57,4.77-6.46,4.77-6.8,4.77c-0.44,0-1.27,0-12.9-10.73l-19.21-2.58l-9.08,5.39l-19.14,19.72l2.07,14.47
	l-6.04,7.55L208.02,387.44z"/>
<polygon  points="566,593.81 566.72,582.86 555.73,571.21 551.73,547.23 546.82,538.33 539.97,538.33 529.01,533.53 
	526.84,532.81 506.41,537.58 501.41,542.64 492.55,541.64 478.54,527.94 480.01,518.57 474.08,514.46 471.33,529.05 461.75,536.23 
	457.48,546.47 457.48,551.94 462.93,555.27 461.53,562.46 463.27,562.09 489.97,600.66 522.16,611.62 541.29,605.66 542.71,617.1 
	574.9,617.1 581.9,599.29 "/>
<polygon  points="292.47,310.37 306.54,327.8 296.61,332.44 293.18,335.37 296.87,341.96 305.69,351.34 314.88,351.34 
	319.05,364.45 333.8,365.63 338.3,375.83 351.59,379.71 373.81,362.1 378.63,350.06 390.12,346.23 382.15,336.89 386.23,319.43 
	380.16,316.83 380.21,305.21 383.04,295.57 378.11,288.08 377.9,287.64 366,287.64 345.45,287.64 311.89,291.75 298.86,294.88 "/>
<path  d="M165.53,257.62l7.94,3.53l3.29,7.57l-7.46,17.9l1.33,6.63l11.98,5.99v7.41l6.88,9.36l16.89-1.69l11.96-11.26
	l-2.05,13h12.33l4.59,15.5l8.68-5.16l20.52,2.76l0.23,0.21c4.9,4.52,10.43,9.41,11.83,10.33c0.93-0.5,3.55-2.58,5.69-4.42l0.25-0.21
	l11.1-0.89l4.13-3.49l7.74-3.61l-13.21-16.37l6.62-16.05l-6.82-4.27v-7.53l-9.16-5.48l-3.17-14.38l-27.4-8.22l-26.03-2.74
	l-17.12-9.59h-15.07l-10.96-10.96l-10.27,10.96l-6.91,9.79L165.53,257.62z"/>
<polygon  points="428.03,494.49 427.92,494.49 414.58,493.25 419.44,509.58 435.95,527.05 447.39,518.2 447.24,517.99 
	435.91,502.41 435.93,493.59 "/>
<polygon  points="123.53,269.15 135.86,280.11 146.51,278 149.36,290.01 131.75,296.18 131.75,303.4 127.64,310.25 
	118.74,301.34 114.67,311.8 115.65,311.58 117.55,320 132.9,329.82 126.26,339.62 125.67,360.9 128.01,381.63 134.29,390.38 
	154.36,394.04 155.29,395.1 161.95,375.38 174.25,379.77 186.64,376.97 200.09,379.75 208.5,374.42 214.06,367.48 211.98,352.89 
	231.49,332.83 227.12,318.06 213.94,318.06 215.45,308.52 207.25,316.24 188.55,318.11 180.6,307.3 180.6,300.48 168.86,294.6 
	167.22,286.41 174.59,268.73 171.95,262.66 163.88,259.08 162.33,254 144.08,247.92 118.74,256.14 134.49,264.36 "/>
<polygon  points="460.7,556.25 455.48,553.06 455.48,546.07 459.65,536.06 447.77,529.98 447.77,520.43 435.74,529.74 
	417.66,510.61 412.45,493.1 384.67,492.43 375.12,507.31 376.99,515.42 362.3,522.01 362.3,534.22 348.55,534.22 347.21,536.7 
	354.29,546.35 347.48,553.6 362.58,558.19 372.16,580.11 392.71,584.9 422.85,571.21 435.18,576 439.97,567.1 459.4,562.92 "/>
<polygon  points="295.23,577.22 296.57,566.03 279.81,554.81 279.81,543.03 264.08,541.64 248.8,544.19 248.8,536.78 
	239.17,544.62 212.56,543.4 187.42,538.71 175.59,549.97 174.9,561.62 189.97,556.14 197.51,562.99 203.67,557.51 224.9,574.63 
	224.22,591.75 234.49,593.81 235.18,604.08 257.78,606.82 266,595.86 297.64,593.81 307.83,577.22 "/>
<polygon  points="351.7,546.19 344.84,536.86 347.36,532.22 360.3,532.22 360.3,520.71 374.67,514.26 373.3,508.34 
	361.4,511.17 345.89,500.93 343.87,492.72 324.95,500.27 315.44,492.55 302.08,497.41 294.01,480.7 298.81,473.98 293.96,472.92 
	281.18,483.81 261.51,483.81 254.96,476.32 252.53,476.32 244.65,494.14 250.65,512.71 263.37,521.09 256.96,530.14 250.8,535.15 
	250.8,541.83 264,539.63 264.13,539.64 281.81,541.2 281.81,553.74 298.7,565.05 297.49,575.22 309.05,575.22 309.84,573.95 
	309.15,562.99 316,556.14 331.07,552.03 345.07,553.24 "/>
<polygon  points="168.74,436.27 177.61,453.64 182.08,453.64 198.69,437.34 224.57,437.34 242.12,447.33 246.65,450.9 
	246.65,463.76 255.87,474.32 256.03,474.32 256.03,474.5 262.42,481.81 280.45,481.81 293.42,470.76 302.21,472.67 296.33,480.89 
	303.09,494.91 315.82,490.28 325.3,497.98 343.39,490.76 341.52,483.13 350.79,472.79 359.28,469.22 356.83,455.51 347.61,448.81 
	318.31,447.31 309.89,433.5 313.06,414.18 306.71,409.68 297.16,409.68 294.52,421.82 273.74,425.32 257.11,419.59 266.67,404.72 
	269.8,392.75 261.25,372.51 249.93,370.58 225.9,381.17 225.9,388.27 205.6,389.6 207.8,377.24 200.48,381.87 186.65,379.02 
	174.13,381.85 163.2,377.94 156.81,396.84 162.58,403.4 165.05,416.94 174.22,424.29 "/>
<polygon  points="212.85,541.42 238.5,542.58 248.8,534.2 248.8,534.11 248.91,534.11 255.59,528.68 260.55,521.63 
	248.96,514 242.51,494.03 251.23,474.32 253.21,474.32 244.65,464.51 244.65,451.87 240.94,448.95 224.04,439.34 199.51,439.34 
	182.9,455.64 178.45,455.64 170.69,472.58 184.49,473.95 197.93,484.27 181.07,487.64 184.49,500.66 195.09,513.75 186.55,524.63 
	189.97,536.27 189.21,537 "/>
<g>
	<polygon  points="426.12,449.42 436.96,439.76 432.44,435 424.29,437.12 417.26,425.69 422.86,420.75 418,412.95 
		412.13,412.95 400.91,399.54 401.78,374.53 398.11,373.87 365.07,371.58 352.02,381.92 338.13,377.86 331.67,392.19 324.72,409.4 
		315.05,414.38 311.99,433.09 319.47,445.37 348.3,446.84 358.65,454.37 361.53,470.45 351.98,474.46 343.71,483.68 347.65,499.69 
		361.78,509.02 373.42,506.25 383.59,490.4 413.95,491.13 413.97,491.18 428,492.48 436.38,491.53 441.83,484 441.23,471.87 
		444.55,466.74 445.77,458.18 434.11,462.07 	"/>
	<polygon  points="485.18,337.64 462.58,319.84 438.6,298.6 426.27,298.6 412.58,285.59 405.04,286.27 389.97,278.05 
		379.79,286.96 379.89,287.15 385.22,295.25 382.16,305.64 382.16,315.51 388.55,318.25 384.33,336.36 393.56,347.19 380.14,351.66 
		375.47,363.34 367.4,369.73 393.51,371.55 393.51,364.24 405.01,357.21 416.63,360.03 433.07,374.71 445.08,372.82 446.82,368.47 
		462.58,357.51 468.74,349.29 476.27,353.4 494.08,349.97 	"/>
</g>
<g>
	<polygon  points="111.06,398.7 127.15,383.86 126.08,382.37 123.67,360.99 124.27,338.98 130.09,330.39 115.78,321.24 
		114.02,313.47 113.95,313.67 106.41,308.19 118.74,293.12 110.52,286.27 110.52,264.36 100.25,264.36 105.04,278.05 101.62,293.12 
		94.77,287.3 89.97,281.48 65.32,293.12 71.48,299.97 69.42,314.36 56.41,304.08 51.62,310.25 54.36,322.58 43.4,334.22 
		44.08,342.44 39.97,359.56 57.1,352.03 56.41,341.07 66.42,341.7 76.96,349.29 77.64,357.51 66,354.77 55.04,361.62 51.62,372.58 
		77.64,366.41 84.49,362.3 84.49,355.45 101.62,353.4 96.14,362.3 96.14,372.58 105.1,370.1 107.89,386.27 102.99,386.96 
		100.93,397.92 104.36,408.88 109.5,402.33 	"/>
	<polygon  points="144.77,433.53 136.12,417.94 133.81,402.71 132.59,391.44 128.33,385.5 113.73,398.88 116.35,406.75 
		116.68,414.36 120.79,450.66 129.7,462.3 139.97,458.88 150.25,464.36 158.47,458.19 	"/>
</g>
</svg>
