<svg xmlns="http://www.w3.org/2000/svg" viewBox="0 0 151.48 70.42"><defs><style>.cls-1{fill:#ebf3fa;}.cls-2{fill:#3f4192;}</style></defs><g id="레이어_2" data-name="레이어 2"><g id="레이어_1-2" data-name="레이어 1"><path class="cls-1" d="M148.43,29.67a16.35,16.35,0,0,0-13-6.85A16.37,16.37,0,0,0,110,5.44l-44.55,32A16.37,16.37,0,0,0,84.58,64.06l13.3-9.56a16.37,16.37,0,0,0,25.87,12.88l20.86-14.87a16.38,16.38,0,0,0,3.82-22.84"/><path class="cls-2" d="M9.22,26.67a9.22,9.22,0,1,0,9.21,9.22,9.23,9.23,0,0,0-9.21-9.22m0,13.38a4.16,4.16,0,1,1,4.15-4.16,4.16,4.16,0,0,1-4.15,4.16"/><rect class="cls-2" x="26.72" y="27.15" width="5.06" height="18.58"/><polygon class="cls-2" points="51.28 31.28 67.07 22.59 64.63 18.16 57.67 21.99 59.24 10.63 55.78 10.16 53.81 6.9 31.78 19.66 34.4 23.98 53.83 12.8 51.28 31.28"/><polygon class="cls-2" points="69.92 32.59 79.19 32.59 79.19 32.72 69.93 43.5 73.77 46.79 81.67 37.59 88.75 46.77 92.76 43.69 84.24 32.64 84.24 32.59 93.33 32.59 93.33 27.54 69.92 27.54 69.92 32.59"/><path class="cls-2" d="M126,41.4V37.3h6.76V20.66h-18.6V37.3h6.78v4.1H107.16v5.05h32.41V41.4Zm-6.79-15.69h8.49v6.53h-8.49Z"/><polygon class="cls-2" points="49.13 34.17 36.2 34.17 36.2 39.23 49.13 39.23 49.13 53.67 54.18 53.67 54.18 39.23 67.09 39.23 67.09 34.17 54.18 34.17 49.13 34.17"/><path class="cls-2" d="M123.42,48.58a9.14,9.14,0,1,0,9.13,9.14,9.15,9.15,0,0,0-9.13-9.14m0,13.22a4.08,4.08,0,1,1,4.08-4.08,4.08,4.08,0,0,1-4.08,4.08"/><polygon class="cls-2" points="107.97 34.18 107.97 29.12 101.25 29.12 101.25 20.2 96.19 20.2 96.19 29.12 96.19 34.18 96.19 45.72 101.25 45.72 101.25 34.18 107.97 34.18"/><polygon class="cls-2" points="57.98 7 60.17 5.72 62.47 6.79 61.92 4.32 63.66 2.47 61.14 2.22 59.91 0 58.9 2.32 56.41 2.8 58.3 4.48 57.98 7"/></g></g></svg>