<svg xmlns="http://www.w3.org/2000/svg" viewBox="0 0 73.98 54.24"><defs><style>.cls-1{fill:#3f4193;}.cls-2{fill:#fff;}</style></defs><g id="레이어_2" data-name="레이어 2"><g id="레이어_1-2" data-name="레이어 1"><path class="cls-1" d="M71.55,21.76a13,13,0,0,0-10.37-5.45A13,13,0,0,0,40.93,2.45L5.43,28A13,13,0,1,0,20.66,49.17l10.6-7.62A13,13,0,0,0,51.88,51.81L68.5,40a13,13,0,0,0,3-18.2"/><path class="cls-2" d="M15.11,36.52a2.21,2.21,0,1,0,1.66,2.64,2.21,2.21,0,0,0-1.66-2.64"/><path class="cls-2" d="M56.06,36.46a2.21,2.21,0,1,0,2.2,2.21,2.21,2.21,0,0,0-2.2-2.21"/><rect class="cls-2" x="54.16" y="28.48" width="3.78" height="3.78"/><polygon class="cls-2" points="40.22 40.68 44.86 40.68 42.54 36.66 40.22 40.68"/><polygon class="cls-2" points="43.31 20.75 46.8 18.92 50.3 20.75 49.63 16.87 52.45 14.12 48.55 13.55 46.8 10.01 45.06 13.55 41.16 14.12 43.98 16.87 43.31 20.75"/><rect class="cls-2" x="15.23" y="26.99" width="28.73" height="0.59" transform="translate(-10.42 22.93) rotate(-36.46)"/><rect class="cls-2" x="38.51" y="27.41" width="12.29" height="0.59" transform="translate(7.77 65.14) rotate(-77.24)"/><rect class="cls-2" x="44.51" y="34.39" width="8.68" height="0.59" transform="translate(-11.06 35.57) rotate(-36.22)"/></g></g></svg>